<?xml version="1.0" standalone="no"?>
<!DOCTYPE svg PUBLIC "-//W3C//DTD SVG 1.1//EN" "http://www.w3.org/Graphics/SVG/1.1/DTD/svg11.dtd"><svg t="1618468680210"
    class="icon" viewBox="0 0 1024 1024" version="1.1" xmlns="http://www.w3.org/2000/svg" p-id="3684"
    xmlns:xlink="http://www.w3.org/1999/xlink" width="100" height="100">
    <defs>
        <style type="text/css"></style>
    </defs>
    <path
        d="M469.333 590.933l-36.266-38.4-14.934 14.934-17.066 55.466 55.466-19.2z m-6.293-68.032l143.317-143.296 37.696 37.718-143.296 143.296z"
        fill="#42b983" p-id="3685"></path>
    <path
        d="M512 0C228.267 0 0 228.267 0 512s228.267 512 512 512 512-228.267 512-512S795.733 0 512 0z m256 725.333C768 748.8 748.8 768 725.333 768H298.667C275.2 768 256 748.8 256 725.333V298.667C256 275.2 275.2 256 298.667 256h426.666C748.8 256 768 275.2 768 298.667v426.666z"
        fill="#42b983" p-id="3686"></path>
    <path
        d="M298.667 725.333h426.666V298.667H298.667v426.666z m49.066-76.8L377.6 550.4c0-4.267 2.133-6.4 4.267-8.533L588.8 334.933c8.533-8.533 21.333-8.533 29.867 0l68.266 68.267c8.534 8.533 8.534 21.333 0 29.867L480 640c-2.133 2.133-6.4 4.267-8.533 4.267l-98.134 29.866h-6.4c-6.4 0-10.666-2.133-14.933-6.4-4.267-4.266-6.4-12.8-4.267-19.2z"
        fill="#42b983" p-id="3687"></path>
</svg>